<svg width="32" height="32" viewBox="0 0 32 32" fill="none" xmlns="http://www.w3.org/2000/svg">
<path d="M9 17.5C9.82843 17.5 10.5 16.8284 10.5 16C10.5 15.1716 9.82843 14.5 9 14.5C8.17157 14.5 7.5 15.1716 7.5 16C7.5 16.8284 8.17157 17.5 9 17.5Z" fill="#333333"/>
<path d="M16.9199 12C16.0394 10.4749 14.6802 9.2829 13.0532 8.60897C11.4261 7.93503 9.62221 7.8168 7.92115 8.2726C6.22008 8.7284 4.71695 9.73276 3.64487 11.1299C2.5728 12.5271 1.9917 14.2389 1.9917 16C1.9917 17.7611 2.5728 19.4729 3.64487 20.8701C4.71695 22.2672 6.22008 23.2716 7.92115 23.7274C9.62221 24.1832 11.4261 24.065 13.0532 23.391C14.6802 22.7171 16.0394 21.5251 16.9199 20H29.9999V15.59L26.4099 12H16.9199ZM27.9999 18H15.6899L15.4199 18.57C14.8363 19.8011 13.8511 20.797 12.6264 21.3937C11.4016 21.9905 10.0102 22.1527 8.68105 21.8536C7.35186 21.5546 6.16404 20.812 5.31295 19.7482C4.46186 18.6843 3.99818 17.3624 3.99818 16C3.99818 14.6376 4.46186 13.3157 5.31295 12.2519C6.16404 11.188 7.35186 10.4454 8.68105 10.1464C10.0102 9.84728 11.4016 10.0095 12.6264 10.6063C13.8511 11.203 14.8363 12.1989 15.4199 13.43L15.6899 14H25.5899L27.9999 16.41V18Z" fill="#333333"/>
</svg>
