<svg width="133" height="24" viewBox="0 0 133 24" fill="none" xmlns="http://www.w3.org/2000/svg">
<path fill-rule="evenodd" clip-rule="evenodd" d="M13.2529 12.4878V0.0878906C19.4674 0.855593 24.0152 6.4061 23.6253 12.7472C23.2355 19.0882 18.043 24.0219 11.7827 23.9997C11.4123 23.9997 11.0496 23.9837 10.691 23.9477V13.5918C10.6899 13.5561 10.7031 13.5215 10.7277 13.4958C10.7522 13.4702 10.7859 13.4558 10.821 13.4558H12.2872C12.816 13.4558 13.2464 13.0243 13.2529 12.4878ZM13.0006 18.5437C12.1843 18.5437 11.5226 17.8722 11.5226 17.0437C11.5226 16.2153 12.1843 15.5438 13.0006 15.5438C13.8169 15.5438 14.4786 16.2153 14.4786 17.0437C14.4797 17.4419 14.3243 17.824 14.0469 18.1056C13.7695 18.3871 13.3929 18.5448 13.0006 18.5437ZM14.9871 17.0437C14.9871 17.8722 15.6488 18.5437 16.4651 18.5437C16.8574 18.5448 17.2339 18.3871 17.5114 18.1056C17.7888 17.824 17.9442 17.4419 17.9431 17.0437C17.9431 16.2153 17.2814 15.5438 16.4651 15.5438C15.6488 15.5438 14.9871 16.2153 14.9871 17.0437ZM18.4516 17.0437C18.4516 17.8722 19.1133 18.5437 19.9296 18.5437C20.3219 18.5448 20.6985 18.3871 20.9759 18.1056C21.2533 17.824 21.4087 17.4419 21.4076 17.0437C21.4076 16.2153 20.7459 15.5438 19.9296 15.5438C19.1133 15.5438 18.4516 16.2153 18.4516 17.0437Z" fill="#00B956"/>
<path fill-rule="evenodd" clip-rule="evenodd" d="M0.068589 10.716C0.713143 4.63704 5.75816 0.0218616 11.7826 0H11.8063V11.8719C11.8041 11.9432 11.7465 11.9999 11.6762 11.9999H10.1942C9.68391 12.021 9.278 12.4417 9.268 12.9599V23.7158C3.38606 22.3937 -0.575965 16.7949 0.068589 10.716ZM8.03827 8.39594C8.03827 9.22436 8.7 9.89593 9.51629 9.89593C9.90828 9.89593 10.2842 9.7379 10.5614 9.45659C10.8386 9.17529 10.9943 8.79376 10.9943 8.39594C10.9943 7.56752 10.3326 6.89595 9.51629 6.89595C8.7 6.89595 8.03827 7.56752 8.03827 8.39594Z" fill="#00B956"/>
<path d="M130.044 6.5957V11.1237H124.053V6.5957H121.101V18.5556H124.053V13.7236H130.044V18.5556H133V6.5957H130.044Z" fill="#00B956"/>
<path fill-rule="evenodd" clip-rule="evenodd" d="M78.4433 6.33203C79.4916 6.33328 80.4411 6.96004 80.8673 7.93202L85.7231 18.5559H82.57L81.5176 16.028H75.3966L74.3443 18.5559H71.1912L76.0194 7.93202C76.4455 6.96004 77.395 6.33328 78.4433 6.33203ZM78.2029 9.31598L76.3859 13.6359L80.5007 13.6559L78.6798 9.31598C78.6448 9.21364 78.5501 9.14475 78.4433 9.14398C78.3351 9.14305 78.2384 9.21225 78.2029 9.31598Z" fill="#00B956"/>
<path d="M45.7299 4.43213C44.3464 4.43213 43.4675 5.18012 42.8132 6.68411L38.9625 15.684L35.1078 6.68411C34.4536 5.18012 33.5746 4.43213 32.1873 4.43213C30.8945 4.43213 29.5583 5.37212 29.5583 7.41211V18.556H32.5104V7.7161L36.3848 16.636C36.9012 17.884 37.7407 18.668 38.9586 18.668C40.1764 18.668 41.012 17.868 41.5362 16.636L45.4106 7.7161V18.556H48.3627V7.41211C48.3627 5.37212 47.0226 4.43213 45.7299 4.43213Z" fill="#00B956"/>
<path d="M53.5337 16.0276C53.4658 16.0276 53.4006 16.0002 53.3526 15.9515C53.3045 15.9027 53.2775 15.8366 53.2775 15.7676V13.6356H60.6401V11.1997H53.2775V9.37968C53.2797 9.23765 53.3938 9.12367 53.5337 9.12368H60.8135V6.5957H52.0794C51.1119 6.60227 50.3297 7.39779 50.3254 8.37969V16.7796C50.3297 17.7615 51.1119 18.557 52.0794 18.5636H60.8135V16.0276H53.5337Z" fill="#00B956"/>
<path d="M65.823 18.5556V9.37968C65.8251 9.23765 65.9392 9.12367 66.0792 9.12368H73.3589V6.5957H64.6248C63.6566 6.60225 62.8734 7.39714 62.8669 8.37969V18.5556H65.823Z" fill="#00B956"/>
<path fill-rule="evenodd" clip-rule="evenodd" d="M112.915 6.41211C117.388 6.41211 119.162 8.36409 119.162 12.5521H119.146C119.146 16.664 117.333 18.664 112.871 18.664H111.894C107.428 18.664 105.619 16.676 105.619 12.5521C105.623 8.36409 107.393 6.41211 111.866 6.41211H112.915ZM111.91 16.1961H112.856V16.1921C115.299 16.1921 116.269 15.0681 116.269 12.5642C116.269 10.1402 115.358 8.94019 112.856 8.94019H111.91C109.332 8.94019 108.496 10.1362 108.496 12.5682C108.496 15.0721 109.446 16.1961 111.91 16.1961Z" fill="#00B956"/>
<path fill-rule="evenodd" clip-rule="evenodd" d="M91.5365 4.73191H97.3815L97.3697 4.71191C101.733 4.71191 103.479 6.9519 103.479 10.8599C103.485 11.4277 103.444 11.995 103.357 12.5559C102.896 15.3198 101.291 17.0198 97.2042 17.0198H95.9193V18.5558H92.9711V17.0198H91.6862C87.6148 17.0198 86.0106 15.3158 85.5495 12.5759C85.4623 12.015 85.4215 11.4477 85.4273 10.8799C85.4273 6.9719 87.1733 4.73191 91.5365 4.73191ZM100.444 12.556C100.003 13.7559 99.2852 14.4959 97.2909 14.4959H95.939V7.236H97.752C99.4547 7.236 100.617 8.31599 100.617 10.864C100.656 11.4336 100.598 12.0058 100.448 12.556H100.444ZM92.9869 14.5158H91.631C89.6328 14.5158 88.9154 13.7598 88.4779 12.5758C88.3275 12.0256 88.2702 11.4535 88.3085 10.8838C88.3085 8.33585 89.4712 7.25585 91.1738 7.25585H92.9908L92.9869 14.5158Z" fill="#00B956"/>
</svg>
