<svg width="24" height="24" viewBox="0 0 24 24" fill="none" xmlns="http://www.w3.org/2000/svg">
<path fill-rule="evenodd" clip-rule="evenodd" d="M24 12C24 18.6274 18.6274 24 12 24C5.37258 24 0 18.6274 0 12C0 5.37258 5.37258 0 12 0C18.6274 0 24 5.37258 24 12ZM16.0873 8.31095C16.0842 10.4142 14.3802 12.1182 12.2763 12.1207V12.1213C10.1731 12.12 8.46846 10.416 8.46538 8.31218C8.46538 6.21016 10.1755 4.5 12.2763 4.5C14.3771 4.5 16.0873 6.21016 16.0873 8.31095ZM16.0319 14.3119C15.3509 14.74 14.6016 15.0501 13.8173 15.2285L15.9489 17.3606C16.3659 17.7925 16.3659 18.4784 15.9489 18.9109C15.5207 19.3544 14.8133 19.3661 14.3703 18.9385L12.2763 16.8433L10.1718 18.9373C9.95961 19.1551 9.67356 19.2633 9.38751 19.2633C9.10207 19.2633 8.81541 19.1551 8.60379 18.9373L8.58534 18.9188C8.15964 18.4839 8.16764 17.7857 8.60256 17.3582L10.7341 15.2266C9.95039 15.0495 9.20173 14.7388 8.52197 14.3113L8.52074 14.31C7.9997 13.9815 7.84345 13.2932 8.17195 12.7721C8.17318 12.7715 8.17318 12.7703 8.17318 12.769C8.50229 12.2492 9.19004 12.093 9.71109 12.4215C11.2798 13.4027 13.2729 13.4027 14.8416 12.4215C15.3528 12.1194 16.0098 12.2683 16.3395 12.7617C16.6828 13.2747 16.545 13.9686 16.0319 14.3119ZM12.2763 6.73366C13.1474 6.73489 13.853 7.4411 13.8536 8.31156C13.8536 9.18263 13.1474 9.88823 12.2763 9.88946C11.4059 9.88823 10.7003 9.18325 10.6984 8.31218C10.6997 7.44049 11.4059 6.73489 12.2763 6.73305V6.73366Z" fill="#333333"/>
</svg>
