<svg width="24" height="24" viewBox="0 0 24 24" fill="none" xmlns="http://www.w3.org/2000/svg">
<path fill-rule="evenodd" clip-rule="evenodd" d="M24 12C24 18.6274 18.6274 24 12 24C5.37258 24 0 18.6274 0 12C0 5.37258 5.37258 0 12 0C18.6274 0 24 5.37258 24 12ZM8.95569 4.65969C9.74339 4.62462 9.99385 4.61538 12 4.61538C14.0062 4.61538 14.2566 4.62277 15.0443 4.65969C15.8302 4.696 16.3662 4.82031 16.8369 5.00308C17.3237 5.19077 17.7348 5.44431 18.1452 5.85477C18.5551 6.26523 18.8086 6.67754 18.9969 7.16308C19.1791 7.63323 19.3034 8.16985 19.3403 8.95569C19.3754 9.74339 19.3846 9.99385 19.3846 12C19.3846 14.0062 19.3772 14.2566 19.3403 15.0443C19.304 15.8302 19.1791 16.3662 18.9969 16.8369C18.8092 17.3237 18.5551 17.7348 18.1452 18.1452C17.7348 18.5551 17.3218 18.8086 16.8369 18.9969C16.3662 19.1791 15.8302 19.3034 15.0443 19.3403C14.2566 19.3754 14.0062 19.3846 12 19.3846C9.99385 19.3846 9.74339 19.3772 8.95569 19.3403C8.16985 19.304 7.63446 19.1791 7.16308 18.9969C6.67692 18.8092 6.26523 18.5551 5.85477 18.1452C5.44431 17.7348 5.19138 17.3218 5.00308 16.8369C4.82031 16.3662 4.69662 15.8302 4.65969 15.0443C4.62462 14.2566 4.61538 14.0062 4.61538 12C4.61538 9.99385 4.62277 9.74339 4.65969 8.95569C4.696 8.16923 4.82031 7.63385 5.00308 7.16308C5.19077 6.67692 5.44431 6.26523 5.85477 5.85477C6.26523 5.44431 6.67754 5.19138 7.16308 5.00308C7.63385 4.82031 8.16923 4.69662 8.95569 4.65969ZM14.9846 5.98831C14.2062 5.95446 13.9711 5.94462 12 5.94462L11.9723 5.92615C10.0277 5.92615 9.77422 5.9351 9.0177 5.96182L8.98215 5.96308C8.26215 6 7.87385 6.12 7.61538 6.22215C7.26523 6.35077 7.02462 6.51692 6.76677 6.77477C6.50769 7.03385 6.34215 7.27385 6.21292 7.62462C6.11138 7.88308 5.992 8.27938 5.95446 8.99938L5.95288 9.04422C5.92639 9.79391 5.91692 10.062 5.91692 11.9908C5.91692 13.9215 5.92642 14.1871 5.95298 14.9303V14.9303L5.95446 14.9717C5.992 15.6917 6.11138 16.0886 6.21292 16.3471C6.34215 16.6892 6.50769 16.9385 6.76677 17.1963C7.02462 17.4548 7.26523 17.6117 7.61538 17.7495C7.87385 17.8511 8.27077 17.9711 8.99138 18.0086C9.77477 18.0449 10.0055 18.0542 11.9815 18.0542C13.9569 18.0542 14.1877 18.0462 14.9717 18.0111C15.6917 17.9785 16.0886 17.8578 16.3471 17.7569C16.6892 17.6234 16.9385 17.4634 17.1963 17.2055C17.4548 16.9458 17.6117 16.7009 17.7495 16.3551C17.8511 16.0954 17.9711 15.7046 18.0086 14.9846C18.0449 14.2062 18.0542 13.9717 18.0542 12C18.0542 10.0283 18.0462 9.79446 18.0111 9.01538C17.9785 8.29538 17.8578 7.90462 17.7569 7.64492C17.6234 7.29908 17.4634 7.05354 17.2055 6.79508C16.9458 6.53723 16.7009 6.37723 16.3551 6.24369C16.0954 6.14154 15.7046 6.02215 14.9846 5.98831ZM12 8.208C9.90462 8.208 8.208 9.90646 8.208 12C8.208 14.0954 9.90646 15.792 12 15.792C14.0954 15.792 15.792 14.0935 15.792 12C15.792 9.90462 14.0935 8.208 12 8.208ZM9.53846 12C9.53846 13.36 10.64 14.4615 12 14.4615C13.36 14.4615 14.4615 13.36 14.4615 12C14.4615 10.64 13.36 9.53846 12 9.53846C10.64 9.53846 9.53846 10.64 9.53846 12ZM16.8283 8.05846C16.8283 8.54769 16.4308 8.94462 15.9422 8.94462C15.4529 8.94462 15.056 8.54708 15.056 8.05846C15.056 7.56985 15.4535 7.17292 15.9422 7.17292C16.4302 7.17231 16.8283 7.56985 16.8283 8.05846Z" fill="#333333"/>
</svg>
