<svg width="32" height="32" viewBox="0 0 32 32" fill="none" xmlns="http://www.w3.org/2000/svg">
<g id="Icons/24/Mail_24" opacity="0.5">
<path id="Fill 1" fill-rule="evenodd" clip-rule="evenodd" d="M7.33151 9H24.6685C22.6235 11.151 19.1835 14.773 17.7355 16.315C16.8285 17.28 15.1715 17.28 14.2645 16.315C12.8165 14.773 9.37551 11.151 7.33151 9ZM5.99951 23V10.503C8.05451 12.664 11.3875 16.173 12.8065 17.685C13.6365 18.568 14.8005 19.075 15.9995 19.075C17.1995 19.075 18.3635 18.568 19.1935 17.685C20.6125 16.173 23.9455 12.664 25.9995 10.503V23H5.99951ZM3.99951 25H27.9995V7H3.99951V25Z" fill="black"/>
<mask id="mask0_822_633" style="mask-type:alpha" maskUnits="userSpaceOnUse" x="3" y="7" width="25" height="18">
<path id="Fill 1_2" fill-rule="evenodd" clip-rule="evenodd" d="M7.33151 9H24.6685C22.6235 11.151 19.1835 14.773 17.7355 16.315C16.8285 17.28 15.1715 17.28 14.2645 16.315C12.8165 14.773 9.37551 11.151 7.33151 9ZM5.99951 23V10.503C8.05451 12.664 11.3875 16.173 12.8065 17.685C13.6365 18.568 14.8005 19.075 15.9995 19.075C17.1995 19.075 18.3635 18.568 19.1935 17.685C20.6125 16.173 23.9455 12.664 25.9995 10.503V23H5.99951ZM3.99951 25H27.9995V7H3.99951V25Z" fill="white"/>
</mask>
<g mask="url(#mask0_822_633)">
<g id="Colors/Basic/Fresh Asphalt">
<rect id="&#226;&#155;&#148;&#239;&#184;&#143; Layer style" x="-6" y="-6" width="44" height="44" fill="#333333"/>
</g>
</g>
</g>
</svg>
