<svg width="32" height="32" viewBox="0 0 32 32" fill="none" xmlns="http://www.w3.org/2000/svg">
<path d="M16.0001 24C18.0397 23.999 20.0297 23.3706 21.7001 22.2L26.5301 28L28.0001 26.72L23.2201 20.9C24.8099 19.2323 25.775 17.0667 25.9523 14.7695C26.1296 12.4723 25.5082 10.1843 24.1931 8.29237C22.878 6.40047 20.95 5.02072 18.7349 4.38642C16.5199 3.75211 14.1538 3.90216 12.0366 4.81119C9.91945 5.72022 8.18114 7.33247 7.11558 9.37534C6.05003 11.4182 5.7226 13.7664 6.18867 16.0228C6.65474 18.2792 7.8857 20.3055 9.67344 21.759C11.4612 23.2126 13.696 24.0042 16.0001 24ZM16.0001 5.99999C17.5823 5.99999 19.129 6.46918 20.4446 7.34823C21.7602 8.22728 22.7856 9.47671 23.3911 10.9385C23.9966 12.4003 24.155 14.0089 23.8463 15.5607C23.5377 17.1126 22.7757 18.538 21.6569 19.6568C20.5381 20.7757 19.1126 21.5376 17.5608 21.8463C16.0089 22.155 14.4004 21.9965 12.9386 21.391C11.4768 20.7855 10.2274 19.7601 9.3483 18.4445C8.46925 17.129 8.00006 15.5822 8.00006 14C8.00006 11.8783 8.84291 9.84342 10.3432 8.34313C11.8435 6.84284 13.8783 5.99999 16.0001 5.99999Z" fill="#333333"/>
</svg>
