<svg width="24" height="24" viewBox="0 0 24 24" fill="none" xmlns="http://www.w3.org/2000/svg">
<path fill-rule="evenodd" clip-rule="evenodd" d="M24 12C24 18.6274 18.6274 24 12 24C5.37258 24 0 18.6274 0 12C0 5.37258 5.37258 0 12 0C18.6274 0 24 5.37258 24 12ZM12.1634 16.4369H11.3251L11.3543 16.469C11.3543 16.469 9.50746 16.5781 7.87995 14.8852C6.10311 13.0384 4.53626 9.37093 4.53626 9.37093C4.53626 9.37093 4.44876 9.12593 4.5456 9.01217C4.65001 8.88151 4.94752 8.87217 4.94752 8.87217L6.95128 8.85467C6.95128 8.85467 7.14378 8.88967 7.2762 8.98592C7.38936 9.07343 7.45061 9.22276 7.45061 9.22276C7.45061 9.22276 7.77495 10.0453 8.2037 10.7803C9.04371 12.2246 9.42871 12.5408 9.71746 12.3879C10.1287 12.1622 10.0056 10.3445 10.0056 10.3445C10.0056 10.3445 10.015 9.68534 9.79621 9.39018C9.62996 9.16209 9.31554 9.09443 9.17554 9.07693C9.06996 9.06351 9.25371 8.80159 9.48996 8.68317C9.84988 8.50759 10.4845 8.49359 11.2371 8.50175C11.8227 8.51109 11.9925 8.54551 12.22 8.59859C12.7518 8.72649 12.735 9.13887 12.6989 10.0238C12.6881 10.2891 12.6756 10.597 12.6756 10.9524C12.6756 11.0343 12.6731 11.1217 12.6706 11.2114C12.6578 11.6655 12.6433 12.1806 12.9375 12.371C13.0862 12.476 13.4625 12.3885 14.4092 10.7966C14.8549 10.0435 15.1886 9.15159 15.1886 9.15159C15.1886 9.15159 15.258 8.99292 15.3717 8.92351C15.4855 8.85292 15.643 8.87101 15.643 8.87101L17.7442 8.85292C17.7442 8.85292 18.3823 8.78351 18.4792 9.06351C18.5929 9.36101 18.2423 10.0616 17.3854 11.2079C16.5696 12.2963 16.1729 12.6967 16.2106 13.0508C16.2381 13.309 16.4963 13.5426 16.9911 14.0003C18.0342 14.9701 18.3032 15.4769 18.3639 15.5914C18.3684 15.5998 18.3717 15.6061 18.3742 15.6103C18.8379 16.3809 17.8568 16.4421 17.8568 16.4421L15.9837 16.4678C15.9837 16.4678 15.5817 16.5466 15.0474 16.1796C14.7711 15.99 14.5016 15.6804 14.2446 15.3852C13.8512 14.9333 13.4873 14.5154 13.1743 14.6145C12.6493 14.7796 12.6674 15.9037 12.6674 15.9037C12.6674 15.9037 12.6674 16.1423 12.5449 16.2712C12.416 16.4095 12.1634 16.4369 12.1634 16.4369Z" fill="#333333"/>
</svg>
