<svg width="24" height="24" viewBox="0 0 24 24" fill="none" xmlns="http://www.w3.org/2000/svg">
<path fill-rule="evenodd" clip-rule="evenodd" d="M24 12C24 18.6274 18.6274 24 12 24C5.37258 24 0 18.6274 0 12C0 5.37258 5.37258 0 12 0C18.6274 0 24 5.37258 24 12ZM18.7077 8.54411C18.5427 7.93974 18.0806 7.46748 17.4893 7.29881C16.398 7.00001 12.0062 7.00001 12.0062 7.00001C12.0062 7.00001 7.62552 6.99404 6.52319 7.29881C5.93186 7.46748 5.46977 7.93974 5.30474 8.54411C5.09788 9.68594 4.9959 10.845 5.00013 12.0063C4.9967 13.1631 5.09868 14.3178 5.30474 15.4553C5.46977 16.0597 5.93186 16.5319 6.52319 16.7006C7.61326 17 12.0062 17 12.0062 17C12.0062 17 16.3864 17 17.4893 16.7006C18.0806 16.5319 18.5427 16.0597 18.7077 15.4553C18.9095 14.3174 19.0072 13.1627 18.9995 12.0063C19.008 10.8454 18.9103 9.68636 18.7077 8.54411ZM10.6045 14.148V9.858L14.2599 12.0063L10.6045 14.148Z" fill="#333333"/>
</svg>
